<?xml version="1.0" standalone="no"?>
<!DOCTYPE svg PUBLIC "-//W3C//DTD SVG 20010904//EN"
 "http://www.w3.org/TR/2001/REC-SVG-20010904/DTD/svg10.dtd">
<svg version="1.0" xmlns="http://www.w3.org/2000/svg"
 width="40.000000pt" height="40.000000pt" viewBox="0 0 40.000000 40.000000"
 preserveAspectRatio="xMidYMid meet">

<g transform="translate(0.000000,40.000000) scale(0.100000,-0.100000)"
fill="#000000" stroke="none">
<path d="M227 337 c-35 -20 -38 -25 -33 -55 7 -48 -28 -83 -77 -75 -32 5 -35
3 -56 -37 -20 -38 -20 -44 -6 -59 8 -10 15 -23 15 -29 0 -7 5 -12 12 -12 6 0
19 -7 29 -16 16 -14 21 -14 59 8 38 21 41 26 36 56 -7 48 28 83 77 75 32 -5
35 -3 56 37 20 38 20 44 6 59 -8 10 -15 23 -15 29 0 7 -6 12 -14 12 -7 0 -19
7 -26 15 -16 19 -17 19 -63 -8z m75 -34 c30 -29 35 -43 16 -43 -16 0 -58 41
-58 57 0 19 11 16 42 -14z m-35 -35 c30 -29 43 -58 26 -58 -10 0 -83 72 -83
82 0 17 26 6 57 -24z m-58 -74 c-18 -18 -36 -31 -41 -27 -6 3 5 20 23 39 18
18 36 31 41 27 6 -3 -5 -20 -23 -39z m-57 -41 c39 -38 47 -53 26 -53 -16 0
-78 61 -78 77 0 21 12 15 52 -24z m-35 -35 c23 -21 31 -48 15 -48 -10 0 -62
53 -62 63 0 14 24 6 47 -15z"/>
</g>
</svg>
