<?xml version="1.0" standalone="no"?>
<!DOCTYPE svg PUBLIC "-//W3C//DTD SVG 20010904//EN"
 "http://www.w3.org/TR/2001/REC-SVG-20010904/DTD/svg10.dtd">
<svg version="1.0" xmlns="http://www.w3.org/2000/svg"
 width="40.000000pt" height="40.000000pt" viewBox="0 0 40.000000 40.000000"
 preserveAspectRatio="xMidYMid meet">

<g transform="translate(0.000000,40.000000) scale(0.100000,-0.100000)"
fill="#000000" stroke="none">
<path d="M104 365 c-18 -16 -41 -25 -61 -25 l-33 0 0 -115 c0 -70 4 -115 10
-115 6 0 10 43 10 110 0 108 0 110 23 109 16 -1 18 -2 5 -6 -16 -4 -18 -18
-18 -110 0 -88 -3 -108 -17 -118 -15 -11 -15 -17 -5 -39 9 -20 9 -26 0 -26 -8
0 -9 -3 -2 -10 7 -7 54 -10 120 -8 l109 3 3 85 3 84 23 -49 c22 -49 22 -50 3
-64 -19 -13 -18 -14 7 -38 l26 -24 38 20 c31 16 38 25 37 48 0 24 -4 28 -27
28 -23 -1 -30 8 -56 67 -29 66 -30 69 -11 78 26 15 24 26 -11 47 -16 9 -30 23
-30 30 0 8 -12 13 -29 13 -18 0 -38 10 -52 25 -30 31 -29 31 -65 0z m46 -5 c0
-5 7 -10 15 -10 8 0 15 -9 15 -20 0 -22 -36 -36 -69 -25 -26 8 -27 23 -3 46
19 20 42 25 42 9z m90 -39 c0 -17 -15 -19 -28 -5 -11 12 -9 14 8 14 11 0 20
-4 20 -9z m-114 -28 c18 -3 42 0 54 7 25 13 38 7 23 -12 -20 -25 -25 -68 -8
-74 12 -5 15 -24 15 -84 0 -81 -15 -116 -26 -61 -6 31 -7 31 -70 31 l-64 0 0
106 c0 106 0 106 23 99 12 -4 36 -9 53 -12z m134 -3 c0 -11 -50 -34 -57 -26
-3 2 8 11 24 20 34 19 33 18 33 6z m30 -18 c0 -4 -20 -18 -45 -30 -25 -12 -45
-17 -45 -11 0 5 19 19 43 29 49 23 47 22 47 12z m2 -107 c17 -37 28 -68 25
-71 -6 -6 -49 75 -61 114 -14 44 6 20 36 -43z m-52 -40 c0 -69 -3 -95 -12 -95
-10 0 -12 24 -10 95 2 52 8 95 13 95 5 0 9 -43 9 -95z m140 -30 c0 -9 -82 -46
-93 -42 -7 2 6 13 28 25 38 20 65 27 65 17z m-210 -35 c0 -19 -5 -21 -67 -18
-55 2 -68 6 -71 21 -3 15 5 17 67 17 65 0 71 -2 71 -20z m200 0 c0 -11 -50
-34 -57 -26 -3 2 8 11 24 20 34 19 33 18 33 6z"/>
<path d="M64 255 c-4 -9 -2 -21 4 -27 15 -15 44 -1 40 19 -4 23 -36 29 -44 8z"/>
<path d="M133 253 c9 -2 23 -2 30 0 6 3 -1 5 -18 5 -16 0 -22 -2 -12 -5z"/>
<path d="M133 233 c9 -2 23 -2 30 0 6 3 -1 5 -18 5 -16 0 -22 -2 -12 -5z"/>
<path d="M60 190 c0 -15 7 -20 25 -20 18 0 25 5 25 20 0 15 -7 20 -25 20 -18
0 -25 -5 -25 -20z m35 0 c3 -5 1 -10 -4 -10 -6 0 -11 5 -11 10 0 6 2 10 4 10
3 0 8 -4 11 -10z"/>
<path d="M138 193 c12 -2 32 -2 45 0 12 2 2 4 -23 4 -25 0 -35 -2 -22 -4z"/>
<path d="M133 173 c9 -2 23 -2 30 0 6 3 -1 5 -18 5 -16 0 -22 -2 -12 -5z"/>
<path d="M60 130 c0 -15 7 -20 25 -20 18 0 25 5 25 20 0 15 -7 20 -25 20 -18
0 -25 -5 -25 -20z m40 6 c0 -3 -4 -8 -10 -11 -5 -3 -10 -1 -10 4 0 6 5 11 10
11 6 0 10 -2 10 -4z"/>
<path d="M120 130 c0 -24 34 -27 56 -6 21 22 18 26 -21 26 -28 0 -35 -4 -35
-20z"/>
</g>
</svg>
